<!DOCTYPE svg PUBLIC "-//W3C//DTD SVG 1.1//EN" "http://www.w3.org/Graphics/SVG/1.1/DTD/svg11.dtd">

<!-- Uploaded to: SVG Repo, www.svgrepo.com, Transformed by: SVG Repo Mixer Tools -->
<svg fill="#000000" width="20px" height="20px" viewBox="0 0 32 32" id="icon" xmlns="http://www.w3.org/2000/svg" stroke="#000000" transform="matrix(-1, 0, 0, 1, 0, 0)">

<g id="SVGRepo_bgCarrier" stroke-width="0"/>

<g id="SVGRepo_tracerCarrier" stroke-linecap="round" stroke-linejoin="round"/>

<g id="SVGRepo_iconCarrier">

<defs>

<style>.cls-1{fill:none;}</style>

</defs>

<title>logout</title>

<path d="M6,30H18a2.0023,2.0023,0,0,0,2-2V25H18v3H6V4H18V7h2V4a2.0023,2.0023,0,0,0-2-2H6A2.0023,2.0023,0,0,0,4,4V28A2.0023,2.0023,0,0,0,6,30Z"/>

<polygon points="20.586 20.586 24.172 17 10 17 10 15 24.172 15 20.586 11.414 22 10 28 16 22 22 20.586 20.586"/>

</g>

</svg>
